# Blender 3.6.5
# www.blender.org
mtllib rock.mtl
o Cube.001
v 0.896930 -0.531869 -1.078061
v 0.736314 -0.491201 1.066762
v -1.052088 -0.479768 0.954513
v -0.692441 -0.529467 -0.835835
v 1.303753 1.083753 -1.023542
v 0.444005 1.316999 1.513821
v -1.019775 1.174950 1.105961
v -0.832940 1.707130 -1.405266
v 1.045407 -0.572765 -0.147996
v 0.067265 -0.487881 -0.783522
v 1.200361 0.123077 -1.221685
v -0.154563 -0.529668 1.228987
v 1.155268 0.280684 1.381585
v -1.094633 -0.669186 -0.118459
v -1.648060 0.254654 0.853586
v -1.185727 0.284203 -1.133555
v 0.975431 1.763712 0.047895
v 0.105258 1.730259 -1.585067
v -0.344848 1.321557 1.730000
v -1.442445 1.484650 0.009798
v -0.015789 -0.727874 -0.060242
v 0.046107 2.296574 -0.253730
v 1.466590 0.495114 0.169032
v 0.059350 0.100640 1.503715
v -1.648881 0.232464 -0.064031
v -0.199824 -0.078348 -1.536424
v 1.008866 -0.541627 0.470257
v -0.321458 -0.475473 -0.702046
v 1.385825 0.589763 -1.181814
v -0.537873 -0.473165 1.154378
v 0.936321 0.480191 1.426494
v -0.862364 -0.634371 -0.537108
v -1.281588 0.883991 1.218077
v -1.149664 1.210361 -1.431442
v 0.808457 1.630699 0.902078
v -0.348723 1.750612 -1.612227
v -0.610285 1.147948 1.327881
v -1.356023 1.245036 -0.716849
v 1.042022 -0.605662 -0.637866
v 0.468949 -0.558027 -1.026806
v 1.081272 -0.240053 -1.287556
v 0.243586 -0.556644 1.191072
v 1.014587 -0.231677 1.312948
v -1.155731 -0.633015 0.459469
v -1.571341 -0.304889 0.770709
v -1.063276 -0.340647 -1.015607
v 1.231954 1.501153 -0.594471
v 0.770454 1.725631 -1.299703
v 0.009659 1.387215 1.796044
v -1.447034 1.527629 0.646380
v -0.476225 -0.689211 -0.037390
v 0.480423 -0.727283 -0.111060
v 0.172793 -0.603641 -0.532460
v -0.106274 -0.689519 0.595963
v -0.198010 1.935521 1.058065
v 0.062998 2.380015 -0.922841
v 0.706625 2.383708 -0.290780
v -0.603343 2.335495 -0.011276
v 1.267461 0.433375 1.008356
v 1.267107 0.402852 -0.689727
v 1.268899 -0.174077 -0.063884
v 1.050912 1.495441 0.197512
v -1.043570 -0.012240 1.289593
v 0.667029 0.242577 1.448684
v -0.135120 -0.258491 1.505020
v -0.066870 0.454705 1.730700
v -1.759897 0.122259 -0.724614
v -1.646483 0.265257 0.459024
v -1.548443 -0.568969 -0.255587
v -1.722461 1.068517 0.045330
v -0.775458 0.300203 -1.402503
v 0.556317 0.034098 -1.496503
v 0.153226 1.123536 -1.832230
v -0.180515 -0.354222 -1.233899
v -0.630920 -0.641496 0.592326
v -0.677921 1.848414 0.698183
v 1.115930 1.352180 0.980967
v -0.944509 0.546270 1.392342
v -1.719440 0.916506 -0.699776
v -0.751048 -0.266109 -1.123006
v -0.359688 -0.634844 -0.596748
v 0.548058 -0.699281 -0.657622
v 0.383454 -0.713317 0.533170
v 0.342781 2.288477 0.863692
v 0.619562 2.123972 -0.838289
v -0.544178 2.261926 -0.889409
v 1.347667 -0.225405 0.746821
v 1.323792 -0.287789 -0.856060
v 1.423543 0.897206 -0.707035
v -0.706694 -0.224532 1.346937
v 0.494274 -0.261732 1.399456
v 0.524189 0.494055 1.410453
v -1.346437 -0.493865 -0.808084
v -1.550380 -0.381655 0.487642
v -1.434319 1.017100 0.746778
v -0.263198 1.201067 -1.716774
v 0.802037 0.850318 -1.528586
v 0.512712 -0.300474 -1.198383
vn -0.0796 -0.9779 0.1933
vn -0.3110 -0.7885 0.5306
vn -0.3029 -0.9404 0.1545
vn -0.5078 0.6977 0.5053
vn -0.4221 0.5081 0.7508
vn -0.5905 0.3509 0.7268
vn 0.7755 0.4844 0.4048
vn 0.5374 0.2842 0.7940
vn 0.3847 0.1429 0.9119
vn -0.3939 0.0821 0.9155
vn -0.5616 0.3650 0.7425
vn -0.7242 0.6542 -0.2179
vn -0.6569 0.1959 -0.7281
vn -0.9019 0.2883 -0.3217
vn -0.2260 -0.6249 -0.7473
vn 0.0540 -0.8200 -0.5698
vn -0.2528 -0.5439 -0.8001
vn -0.0570 -0.9982 -0.0203
vn -0.0850 -0.9630 -0.2556
vn 0.0461 -0.8960 -0.4416
vn 0.0987 -0.9944 -0.0367
vn -0.1111 -0.9578 -0.2650
vn -0.0455 -0.9842 -0.1712
vn 0.1037 -0.8561 0.5063
vn -0.0700 -0.9853 0.1560
vn 0.1192 -0.9830 0.1396
vn 0.1766 0.8908 0.4186
vn -0.5831 0.2819 0.7620
vn 0.1316 0.3580 0.9244
vn 0.0289 0.9301 -0.3661
vn 0.5037 0.8636 -0.0210
vn 0.5748 0.6948 -0.4322
vn -0.3636 0.9206 0.1422
vn -0.4279 0.8532 -0.2984
vn 0.9186 0.0920 0.3843
vn 0.5158 -0.4961 0.6985
vn 0.8643 -0.4522 0.2203
vn 0.9817 -0.1823 -0.0549
vn 0.9320 -0.3607 -0.0350
vn 0.9125 -0.3655 -0.1838
vn 0.8901 0.4462 -0.0930
vn 0.9017 0.4058 0.1492
vn 0.9945 0.0976 -0.0378
vn -0.4551 -0.2745 0.8471
vn -0.7834 -0.4865 0.3868
vn -0.2812 -0.3910 0.8764
vn 0.1762 -0.4434 0.8788
vn 0.0979 -0.2233 0.9698
vn -0.1022 -0.3317 0.9378
vn 0.0336 -0.2414 0.9699
vn 0.1705 -0.0359 0.9847
vn -0.4221 -0.7025 -0.5730
vn -0.5512 -0.2159 -0.8059
vn -0.8183 -0.5684 0.0859
vn -0.9926 -0.0982 0.0721
vn -0.6837 -0.7291 -0.0309
vn -0.6958 0.6003 0.3943
vn -0.9632 0.2649 0.0456
vn -0.8631 0.2304 0.4494
vn -0.4251 -0.2733 -0.8629
vn -0.2953 0.0118 -0.9553
vn 0.2051 -0.3819 -0.9012
vn 0.1399 0.0907 -0.9860
vn 0.4703 0.0585 -0.8806
vn -0.1024 -0.8307 -0.5472
vn -0.1114 -0.8515 -0.5123
vn 0.0222 -0.6169 -0.7867
vn -0.1681 -0.9857 -0.0124
vn -0.0293 -0.9964 -0.0792
vn -0.1957 -0.8383 0.5088
vn -0.4209 0.7539 0.5045
vn -0.0877 0.9914 0.0976
vn -0.7342 0.6681 -0.1203
vn 0.7153 0.0497 0.6971
vn 0.9991 0.0386 0.0189
vn 0.6702 0.6216 0.4056
vn -0.9177 0.0032 0.3973
vn -0.9080 -0.1444 -0.3934
vn -0.1404 -0.4845 -0.8635
vn 0.0138 -0.7619 -0.6475
vn -0.1571 -0.9331 -0.3235
vn 0.2341 -0.7933 -0.5620
vn 0.6102 -0.7907 0.0491
vn 0.5111 -0.8572 -0.0625
vn 0.5176 -0.8492 0.1045
vn 0.3116 -0.8578 0.4087
vn 0.8632 0.4525 0.2237
vn 0.8443 0.3595 -0.3973
vn 0.5853 0.5212 -0.6212
vn 0.2033 0.5520 -0.8087
vn -0.5776 0.5285 -0.6221
vn -0.1773 0.5251 -0.8324
vn 0.7756 -0.1136 -0.6210
vn 0.4762 -0.4125 -0.7765
vn 0.8830 -0.0886 -0.4609
vn -0.1175 -0.8578 0.5004
vn 0.0874 -0.0154 0.9961
vn -0.9982 -0.0164 0.0581
vt 0.137636 0.563411
vt 0.082613 0.506661
vt 0.152906 0.498683
vt 0.155028 0.344089
vt 0.155630 0.402329
vt 0.099783 0.387655
vt 0.896175 0.282885
vt 0.794976 0.248970
vt 0.870663 0.174892
vt 0.949240 0.587705
vt 0.905653 0.682602
vt 0.916733 0.604517
vt 0.369246 0.000842
vt 0.460672 0.063535
vt 0.336809 0.082005
vt 0.485748 0.254952
vt 0.481603 0.323059
vt 0.447322 0.276247
vt 0.215363 0.578539
vt 0.270084 0.523882
vt 0.276846 0.583529
vt 0.226456 0.694739
vt 0.266533 0.646047
vt 0.288525 0.695621
vt 0.060049 0.668982
vt 0.140662 0.629249
vt 0.149628 0.688747
vt 0.046020 0.277128
vt 0.042023 0.402498
vt 0.011393 0.383384
vt 0.226136 0.127633
vt 0.116225 0.149680
vt 0.133867 0.094672
vt 0.335575 0.267841
vt 0.206193 0.274302
vt 0.273683 0.187557
vt 0.520455 0.684734
vt 0.404599 0.713241
vt 0.422948 0.654063
vt 0.529375 0.479105
vt 0.439840 0.553878
vt 0.422729 0.459207
vt 0.672331 0.787452
vt 0.731678 0.707183
vt 0.744126 0.814485
vt 0.006598 0.482318
vt 0.090851 0.431859
vt 0.016271 0.536299
vt 0.857058 0.070133
vt 0.818683 0.137473
vt 0.786060 0.070157
vt 0.720806 0.251159
vt 0.758736 0.168010
vt 0.829103 0.182611
vt 0.408067 0.318081
vt 0.431026 0.176751
vt 0.834672 0.401576
vt 0.758928 0.488146
vt 0.747834 0.361119
vt 0.844101 0.700647
vt 0.766456 0.640000
vt 0.853441 0.628842
vt 0.491069 0.166304
vt 0.554998 0.057463
vt 0.642437 0.169965
vt 0.608937 0.072162
vt 0.661203 0.071636
vt 0.619708 0.321108
vt 0.556413 0.271543
vt 0.628288 0.255903
vt 0.223692 0.502410
vt 0.220811 0.635843
vt 0.058285 0.569867
vt 0.115533 0.299946
vt 0.165692 0.199396
vt 0.258354 0.321530
vt 0.934356 0.187628
vt 0.907061 0.133559
vt 0.539575 0.580737
vt 0.617335 0.678426
vt 0.622627 0.581780
vt 0.672331 0.661064
vt 0.939564 0.506329
vt 0.869574 0.490922
vt 0.744126 0.821215
vt 0.791426 0.711743
vt 0.791582 0.866218
vt 1.000000 0.606532
vt 0.944083 0.694636
vt 0.348488 0.225548
vt 0.672331 0.596657
vt 0.677773 0.459778
vt 0.674914 0.687648
vt 0.565426 0.199969
vt 0.387737 0.801509
vt 0.336920 0.785916
vt 0.384519 0.726331
vt 0.506205 0.350977
vt 0.512673 0.310590
vt 0.560004 0.310321
vt 0.609960 0.361119
vt 0.324683 0.722893
vt 0.320949 0.673747
vt 0.218381 0.752553
vt 0.278588 0.749240
vt 0.143231 0.752483
vt 0.069266 0.722735
vt 0.808347 0.361119
vt 0.854473 0.349296
vt 0.056221 0.145884
vt 0.000000 0.241327
vt 0.085645 0.065345
vt 0.116277 0.014773
vt 0.187902 0.035191
vt 0.273048 0.064123
vt 0.336809 0.140426
vt 0.316518 0.068429
vt 0.336809 0.674909
vt 0.340137 0.610197
vt 0.339988 0.536299
vt 0.336833 0.476818
vt 0.353162 0.419686
vt 0.517650 0.412671
vt 0.429528 0.400325
vt 0.604166 0.482239
vt 0.586459 0.423461
vt 0.646477 0.441109
vt 0.000000 0.608449
vt 0.053708 0.620010
vt 0.736508 0.092307
vt 0.012308 0.682984
vt 0.913859 0.076969
vt 0.855242 0.125920
vt 0.448079 0.354288
vt 0.291247 0.454530
vt 0.685316 0.388716
vt 0.130148 0.436240
vt 0.867108 0.417288
vt 0.821728 0.494375
vt 0.489191 0.000000
vt 0.563922 0.000091
vt 0.582099 0.007382
vt 0.207942 0.000000
vt 0.639569 0.392860
vt 0.579472 0.365264
vt 0.693822 0.237100
vt 0.693981 0.150197
vt 0.668575 0.311882
vt 0.206316 0.378186
vt 0.477461 0.726331
vt 0.683844 0.711964
vt 0.054401 0.402498
vt 0.693981 0.268226
vt 0.766741 0.707183
vt 0.662917 0.562066
vt 0.752056 0.707183
vt 0.999879 0.706758
vt 0.336809 0.833560
vt 0.559475 0.342029
vt 0.670954 0.491413
vt 0.694133 0.143704
vt 0.019832 0.742597
vt 0.232244 0.440506
vt 0.293309 0.025246
vt 0.477201 0.361119
s 1
usemtl Material.001
f 75/1/1 3/2/2 44/3/3
f 76/4/4 7/5/5 37/6/6
f 77/7/7 6/8/8 31/9/9
f 78/10/10 7/11/5 33/12/11
f 38/13/12 34/14/13 79/15/14
f 80/16/15 4/17/16 46/18/17
f 51/19/18 32/20/19 81/21/20
f 52/22/21 53/23/22 82/24/23
f 42/25/24 54/26/25 83/27/26
f 84/28/27 19/29/28 49/30/29
f 56/31/30 57/32/31 85/33/32
f 38/34/12 58/35/33 86/36/34
f 59/37/35 43/38/36 87/39/37
f 60/40/38 61/41/39 88/42/40
f 47/43/41 62/44/42 89/45/43
f 63/46/44 45/47/45 90/48/46
f 91/49/47 24/50/48 65/51/49
f 49/52/29 66/53/50 92/54/51
f 93/55/52 16/56/53 46/18/17
f 94/57/54 25/58/55 69/59/56
f 50/60/57 70/61/58 95/62/59
f 71/63/60 34/14/13 96/64/61
f 72/65/62 73/66/63 97/67/64
f 40/68/65 74/69/66 98/70/67
f 51/19/18 44/3/3 14/71/68
f 54/26/25 51/19/18 21/72/69
f 54/26/25 30/73/70 75/1/1
f 55/74/71 37/6/6 19/29/28
f 58/35/33 55/74/71 22/75/72
f 20/76/73 76/4/4 58/35/33
f 59/77/35 31/9/9 13/78/74
f 23/79/75 77/80/7 59/37/35
f 62/81/42 35/82/76 77/80/7
f 63/83/44 33/12/11 15/84/77
f 66/85/50 63/86/44 24/87/48
f 66/88/50 37/89/6 78/10/10
f 79/15/14 16/56/53 67/90/78
f 25/58/55 79/91/14 67/92/78
f 70/61/58 38/93/12 79/91/14
f 80/16/15 16/56/53 71/63/60
f 26/94/79 80/16/15 71/63/60
f 74/95/66 28/96/80 80/97/15
f 81/98/20 4/17/16 28/99/80
f 10/100/81 81/98/20 28/99/80
f 21/72/69 81/21/20 53/23/22
f 82/101/23 10/100/81 40/68/65
f 1/102/82 82/24/23 40/103/65
f 9/104/83 82/24/23 39/105/84
f 83/27/26 21/72/69 52/22/21
f 27/106/85 52/22/21 9/104/83
f 2/107/86 83/27/26 27/106/85
f 84/108/27 6/8/8 35/109/76
f 17/110/87 84/28/27 35/111/76
f 22/75/72 84/28/27 57/32/31
f 47/112/41 57/32/31 17/110/87
f 5/113/88 85/33/32 47/112/41
f 48/114/89 56/31/30 85/33/32
f 86/36/34 22/75/72 56/31/30
f 18/115/90 86/36/34 56/31/30
f 8/116/91 86/36/34 36/117/92
f 87/39/37 2/118/86 27/119/85
f 61/41/39 27/119/85 9/120/83
f 23/79/75 87/39/37 61/41/39
f 39/121/84 61/41/39 9/120/83
f 1/122/82 88/42/40 39/121/84
f 11/123/93 88/42/40 41/124/94
f 89/125/43 23/79/75 60/40/38
f 29/126/95 60/40/38 11/123/93
f 5/127/88 89/125/43 29/126/95
f 90/48/46 3/2/2 30/73/70
f 65/128/49 30/73/70 12/129/96
f 24/50/48 90/130/46 65/51/49
f 42/25/24 65/128/49 12/129/96
f 2/107/86 91/131/47 42/25/24
f 43/132/36 64/133/97 91/49/47
f 92/54/51 24/50/48 64/133/97
f 31/9/9 64/133/97 13/78/74
f 6/8/8 92/54/51 31/9/9
f 32/134/19 46/18/17 4/17/16
f 14/71/68 93/135/52 32/20/19
f 69/59/56 67/92/78 93/136/52
f 94/137/54 14/71/68 44/3/3
f 45/47/45 44/3/3 3/2/2
f 45/138/45 68/139/98 94/57/54
f 68/139/98 70/61/58 25/58/55
f 15/84/77 95/62/59 68/139/98
f 7/11/5 95/62/59 33/12/11
f 96/64/61 8/140/91 36/141/92
f 73/66/63 36/141/92 18/142/90
f 26/94/79 96/64/61 73/66/63
f 97/143/64 18/115/90 48/114/89
f 29/126/95 48/144/89 5/127/88
f 11/123/93 97/145/64 29/126/95
f 98/70/67 26/94/79 72/65/62
f 41/146/94 72/65/62 11/147/93
f 1/148/82 98/70/67 41/146/94
f 75/1/1 30/73/70 3/2/2
f 76/4/4 50/149/57 7/5/5
f 77/7/7 35/109/76 6/8/8
f 78/10/10 37/89/6 7/11/5
f 38/13/12 8/140/91 34/14/13
f 80/16/15 28/99/80 4/17/16
f 51/19/18 14/71/68 32/20/19
f 52/22/21 21/72/69 53/23/22
f 42/25/24 12/129/96 54/26/25
f 84/28/27 55/74/71 19/29/28
f 56/31/30 22/75/72 57/32/31
f 38/34/12 20/76/73 58/35/33
f 59/37/35 13/150/74 43/38/36
f 60/40/38 23/79/75 61/41/39
f 47/43/41 17/151/87 62/44/42
f 63/46/44 15/152/77 45/47/45
f 91/49/47 64/133/97 24/50/48
f 49/52/29 19/153/28 66/53/50
f 93/55/52 67/90/78 16/56/53
f 94/57/54 68/139/98 25/58/55
f 50/60/57 20/154/73 70/61/58
f 71/63/60 16/56/53 34/14/13
f 72/65/62 26/94/79 73/66/63
f 40/68/65 10/100/81 74/69/66
f 51/19/18 75/1/1 44/3/3
f 54/26/25 75/1/1 51/19/18
f 54/26/25 12/129/96 30/73/70
f 55/74/71 76/4/4 37/6/6
f 58/35/33 76/4/4 55/74/71
f 20/76/73 50/149/57 76/4/4
f 59/77/35 77/7/7 31/9/9
f 23/79/75 62/81/42 77/80/7
f 62/81/42 17/155/87 35/82/76
f 63/83/44 78/10/10 33/12/11
f 66/85/50 78/156/10 63/86/44
f 66/88/50 19/157/28 37/89/6
f 79/15/14 34/14/13 16/56/53
f 25/58/55 70/61/58 79/91/14
f 70/61/58 20/154/73 38/93/12
f 80/16/15 46/18/17 16/56/53
f 26/94/79 74/69/66 80/16/15
f 74/95/66 10/158/81 28/96/80
f 81/98/20 32/134/19 4/17/16
f 10/100/81 53/159/22 81/98/20
f 21/72/69 51/19/18 81/21/20
f 82/101/23 53/159/22 10/100/81
f 1/102/82 39/105/84 82/24/23
f 9/104/83 52/22/21 82/24/23
f 83/27/26 54/26/25 21/72/69
f 27/106/85 83/27/26 52/22/21
f 2/107/86 42/25/24 83/27/26
f 84/108/27 49/52/29 6/8/8
f 17/110/87 57/32/31 84/28/27
f 22/75/72 55/74/71 84/28/27
f 47/112/41 85/33/32 57/32/31
f 5/113/88 48/114/89 85/33/32
f 48/114/89 18/115/90 56/31/30
f 86/36/34 58/35/33 22/75/72
f 18/115/90 36/117/92 86/36/34
f 8/116/91 38/34/12 86/36/34
f 87/39/37 43/38/36 2/118/86
f 61/41/39 87/39/37 27/119/85
f 23/79/75 59/37/35 87/39/37
f 39/121/84 88/42/40 61/41/39
f 1/122/82 41/124/94 88/42/40
f 11/123/93 60/40/38 88/42/40
f 89/125/43 62/81/42 23/79/75
f 29/126/95 89/125/43 60/40/38
f 5/127/88 47/160/41 89/125/43
f 90/48/46 45/47/45 3/2/2
f 65/128/49 90/48/46 30/73/70
f 24/50/48 63/161/44 90/130/46
f 42/25/24 91/131/47 65/128/49
f 2/107/86 43/162/36 91/131/47
f 43/132/36 13/78/74 64/133/97
f 92/54/51 66/53/50 24/50/48
f 31/9/9 92/54/51 64/133/97
f 6/8/8 49/52/29 92/54/51
f 32/134/19 93/55/52 46/18/17
f 14/71/68 69/163/56 93/135/52
f 69/59/56 25/58/55 67/92/78
f 94/137/54 69/163/56 14/71/68
f 45/47/45 94/137/54 44/3/3
f 45/138/45 15/84/77 68/139/98
f 68/139/98 95/62/59 70/61/58
f 15/84/77 33/12/11 95/62/59
f 7/11/5 50/60/57 95/62/59
f 96/64/61 34/14/13 8/140/91
f 73/66/63 96/64/61 36/141/92
f 26/94/79 71/63/60 96/64/61
f 97/143/64 73/164/63 18/115/90
f 29/126/95 97/145/64 48/144/89
f 11/123/93 72/165/62 97/145/64
f 98/70/67 74/69/66 26/94/79
f 41/146/94 98/70/67 72/65/62
f 1/148/82 40/68/65 98/70/67
