# Blender 3.6.5
# www.blender.org
mtllib tom-cube.mtl
o Cube
v -0.192198 -0.500000 0.192198
v -0.192198 -0.192198 0.500000
v -0.500000 -0.192198 0.192198
v -0.192198 0.192198 0.500000
v -0.192198 0.500000 0.192198
v -0.500000 0.192198 0.192198
v -0.192198 -0.500000 -0.192198
v -0.500000 -0.192198 -0.192198
v -0.192198 -0.192198 -0.500000
v -0.192198 0.500000 -0.192198
v -0.192198 0.192198 -0.500000
v -0.500000 0.192198 -0.192198
v 0.192198 -0.500000 0.192198
v 0.500000 -0.192198 0.192198
v 0.192198 -0.192198 0.500000
v 0.192198 0.500000 0.192198
v 0.192198 0.192198 0.500000
v 0.500000 0.192198 0.192198
v 0.192198 -0.500000 -0.192198
v 0.192198 -0.192198 -0.500000
v 0.500000 -0.192198 -0.192198
v 0.192198 0.500000 -0.192198
v 0.500000 0.192198 -0.192198
v 0.192198 0.192198 -0.500000
v -0.442198 -0.500000 -0.442198
v -0.442198 -0.500000 0.442198
v -0.500000 -0.442198 0.442198
v -0.500000 -0.442198 -0.442198
v -0.442198 -0.442198 0.500000
v -0.442198 0.442198 0.500000
v -0.500000 0.442198 0.442198
v -0.442198 0.500000 0.442198
v -0.442198 0.500000 -0.442198
v -0.500000 0.442198 -0.442198
v -0.442198 0.442198 -0.500000
v -0.442198 -0.442198 -0.500000
v 0.442198 -0.500000 -0.442198
v 0.442198 -0.442198 -0.500000
v 0.442198 0.500000 -0.442198
v 0.442198 0.442198 -0.500000
v 0.500000 0.442198 -0.442198
v 0.500000 -0.442198 -0.442198
v 0.442198 -0.500000 0.442198
v 0.500000 -0.442198 0.442198
v 0.442198 0.500000 0.442198
v 0.500000 0.442198 0.442198
v 0.442198 0.442198 0.500000
v 0.442198 -0.442198 0.500000
v -0.192198 -0.250000 -0.192198
v -0.192198 -0.250000 0.192198
v -0.250000 -0.192198 0.192198
v -0.250000 -0.192198 -0.192198
v -0.192198 -0.192198 0.250000
v -0.192198 0.192198 0.250000
v -0.250000 0.192198 0.192198
v -0.192198 0.250000 0.192198
v -0.192198 0.250000 -0.192198
v -0.250000 0.192198 -0.192198
v -0.192198 0.192198 -0.250000
v -0.192198 -0.192198 -0.250000
v 0.192198 -0.250000 -0.192198
v 0.192198 -0.192198 -0.250000
v 0.192198 0.250000 -0.192198
v 0.192198 0.192198 -0.250000
v 0.250000 0.192198 -0.192198
v 0.250000 -0.192198 -0.192198
v 0.192198 -0.250000 0.192198
v 0.250000 -0.192198 0.192198
v 0.192198 0.250000 0.192198
v 0.250000 0.192198 0.192198
v 0.192198 0.192198 0.250000
v 0.192198 -0.192198 0.250000
vn -1.0000 -0.0000 -0.0000
vn -0.0000 -0.0000 -1.0000
vn -0.0000 -1.0000 -0.0000
vn -0.0000 -0.0000 1.0000
vn -0.5774 -0.5774 0.5774
vn -0.5774 0.5774 0.5774
vn -0.5774 -0.5774 -0.5774
vn -0.5774 0.5774 -0.5774
vn 0.5774 -0.5774 0.5774
vn 0.5774 0.5774 0.5774
vn 0.5774 -0.5774 -0.5774
vn 0.5774 0.5774 -0.5774
vn -0.7071 -0.7071 -0.0000
vn -0.7071 -0.0000 0.7071
vn -0.7071 0.7071 -0.0000
vn -0.7071 -0.0000 -0.7071
vn -0.0000 -0.7071 -0.7071
vn -0.0000 0.7071 -0.7071
vn 0.7071 -0.0000 -0.7071
vn 0.7071 -0.7071 -0.0000
vn 0.7071 0.7071 -0.0000
vn 0.7071 -0.0000 0.7071
vn -0.0000 -0.7071 0.7071
vn -0.0000 0.7071 0.7071
vn 1.0000 -0.0000 -0.0000
vn -0.0000 1.0000 -0.0000
vt 0.779297 0.272301
vt 0.779297 0.184047
vt 0.721899 0.184047
vt 0.721899 0.272301
vt 0.125754 0.767560
vt 0.037499 0.767560
vt 0.037499 0.824959
vt 0.125754 0.824959
vt 0.844241 0.024377
vt 0.844241 0.112631
vt 0.901640 0.112631
vt 0.901640 0.024377
vt 0.793249 0.019726
vt 0.793249 0.107981
vt 0.735851 0.107981
vt 0.735851 0.019726
vt 0.655281 0.107981
vt 0.655281 0.019726
vt 0.597883 0.019726
vt 0.597883 0.107981
vt 0.561657 0.650527
vt 0.561657 0.637256
vt 0.548386 0.650527
vt 0.640441 0.703746
vt 0.640441 0.717017
vt 0.627170 0.717017
vt 0.556774 0.692446
vt 0.543503 0.692446
vt 0.556774 0.705716
vt 0.641364 0.626927
vt 0.641364 0.640198
vt 0.628093 0.626927
vt 0.622851 0.653327
vt 0.607713 0.653327
vt 0.607713 0.638189
vt 0.529742 0.719478
vt 0.529742 0.706207
vt 0.543013 0.719478
vt 0.613787 0.691535
vt 0.613787 0.704806
vt 0.627058 0.691535
vt 0.540816 0.624774
vt 0.554086 0.624774
vt 0.540816 0.638045
vt 0.981856 0.294398
vt 0.778805 0.294398
vt 0.778805 0.307669
vt 0.981856 0.307669
vt 0.759850 0.315772
vt 0.759850 0.518824
vt 0.746579 0.518824
vt 0.746579 0.315772
vt 0.790410 0.562800
vt 0.993461 0.562800
vt 0.993461 0.576071
vt 0.790410 0.576071
vt 0.026607 0.529675
vt 0.026607 0.326624
vt 0.013336 0.326624
vt 0.013336 0.529675
vt 0.736572 0.294045
vt 0.533521 0.294045
vt 0.533521 0.307316
vt 0.736572 0.307316
vt 0.556774 0.817446
vt 0.759825 0.817446
vt 0.759825 0.830716
vt 0.556774 0.830716
vt 0.504912 0.521924
vt 0.504912 0.318873
vt 0.491641 0.318873
vt 0.491641 0.521924
vt 0.284076 0.288962
vt 0.487127 0.288962
vt 0.487127 0.275691
vt 0.284076 0.275691
vt 0.485174 0.587790
vt 0.282123 0.587790
vt 0.282123 0.574519
vt 0.485174 0.574519
vt 0.248260 0.529675
vt 0.248260 0.326624
vt 0.261531 0.326624
vt 0.261531 0.529675
vt 0.043102 0.296035
vt 0.246153 0.296035
vt 0.246153 0.282764
vt 0.043102 0.282764
vt 0.232482 0.581191
vt 0.029430 0.581191
vt 0.029430 0.567920
vt 0.232482 0.567920
vt 0.401969 0.914276
vt 0.313714 0.914276
vt 0.313714 0.856878
vt 0.401969 0.856878
vt 0.332440 0.181556
vt 0.332440 0.093302
vt 0.275041 0.035904
vt 0.275041 0.238955
vt 0.832750 0.380922
vt 0.921005 0.380922
vt 0.978403 0.323523
vt 0.775352 0.323523
vt 0.094857 0.384022
vt 0.094857 0.472277
vt 0.037458 0.529675
vt 0.037458 0.326624
vt 0.832750 0.469176
vt 0.775352 0.526575
vt 0.322674 0.690770
vt 0.322674 0.779025
vt 0.265276 0.836423
vt 0.265276 0.633372
vt 0.921005 0.469176
vt 0.978403 0.526575
vt 0.581618 0.466076
vt 0.581618 0.377821
vt 0.524220 0.320423
vt 0.524220 0.523474
vt 0.420694 0.181556
vt 0.478092 0.238955
vt 0.669873 0.377821
vt 0.727271 0.320423
vt 0.410929 0.779025
vt 0.468327 0.836423
vt 0.669873 0.466076
vt 0.727271 0.523474
vt 0.417191 0.470727
vt 0.417191 0.382472
vt 0.474589 0.325074
vt 0.474589 0.528125
vt 0.420694 0.093302
vt 0.478092 0.035904
vt 0.328936 0.382472
vt 0.271538 0.325074
vt 0.410929 0.690770
vt 0.468327 0.633372
vt 0.328936 0.470727
vt 0.271538 0.528125
vt 0.183111 0.472277
vt 0.183111 0.384022
vt 0.240510 0.326624
vt 0.240510 0.529675
vt 0.976812 0.740567
vt 0.976812 0.828822
vt 0.888557 0.828822
vt 0.888557 0.740567
vt 0.725680 0.876984
vt 0.725680 0.965239
vt 0.637425 0.965239
vt 0.637425 0.876984
vt 0.979912 0.711007
vt 0.891657 0.711007
vt 0.891657 0.622752
vt 0.979912 0.622752
vt 0.868405 0.858382
vt 0.868405 0.946637
vt 0.956659 0.946637
vt 0.956659 0.858382
vt 0.756790 0.869233
vt 0.756790 0.957488
vt 0.845045 0.957488
vt 0.845045 0.869233
vt 0.671530 0.810219
vt 0.759784 0.810219
vt 0.759784 0.721965
vt 0.671530 0.721965
vt 0.616316 0.174040
vt 0.616316 0.262295
vt 0.558918 0.262295
vt 0.558918 0.174040
vt 0.103011 0.056737
vt 0.191265 0.056737
vt 0.191265 0.114135
vt 0.103011 0.114135
vt 0.127304 0.840420
vt 0.039050 0.840420
vt 0.039050 0.897818
vt 0.127304 0.897818
vt 0.924851 0.259900
vt 0.924851 0.171645
vt 0.982250 0.171645
vt 0.982250 0.259900
vt 0.411377 0.949282
vt 0.499631 0.949282
vt 0.499631 0.891884
vt 0.411377 0.891884
vt 0.039050 0.688500
vt 0.127304 0.688500
vt 0.127304 0.745899
vt 0.039050 0.745899
vt 0.588623 0.018176
vt 0.588623 0.106430
vt 0.531225 0.106430
vt 0.531225 0.018176
vt 0.031299 0.916379
vt 0.119553 0.916379
vt 0.119553 0.973777
vt 0.031299 0.973777
vt 0.194366 0.190054
vt 0.106111 0.190054
vt 0.106111 0.247452
vt 0.194366 0.247452
vt 0.788434 0.214944
vt 0.788434 0.126690
vt 0.845833 0.126690
vt 0.845833 0.214944
vt 0.313714 0.984936
vt 0.401969 0.984936
vt 0.401969 0.927538
vt 0.313714 0.927538
vt 0.713278 0.215855
vt 0.625024 0.215855
vt 0.625024 0.158456
vt 0.713278 0.158456
vt 0.032341 0.207910
vt 0.032341 0.119655
vt 0.089740 0.119655
vt 0.089740 0.207910
vt 0.725040 0.106430
vt 0.725040 0.018176
vt 0.667642 0.018176
vt 0.667642 0.106430
vt 0.290829 0.878070
vt 0.290829 0.964237
vt 0.234789 0.964237
vt 0.234789 0.878070
vt 0.917100 0.061581
vt 0.917100 0.149836
vt 0.974499 0.149836
vt 0.974499 0.061581
vt 0.204413 0.121205
vt 0.204413 0.209460
vt 0.261811 0.209460
vt 0.261811 0.121205
vt 0.622576 0.279348
vt 0.710277 0.279348
vt 0.710277 0.222310
vt 0.622576 0.222310
s 0
usemtl Material.002
f 24/1/1 20/2/1 62/3/1 64/4/1
f 13/5/2 1/6/2 50/7/2 67/8/2
f 6/9/3 12/10/3 58/11/3 55/12/3
f 21/13/4 23/14/4 65/15/4 66/16/4
f 18/17/2 14/18/2 68/19/2 70/20/2
f 26/21/5 29/22/5 27/23/5
f 30/24/6 32/25/6 31/26/6
f 25/27/7 28/28/7 36/29/7
f 33/30/8 35/31/8 34/32/8
f 43/33/9 44/34/9 48/35/9
f 45/36/10 47/37/10 46/38/10
f 37/39/11 38/40/11 42/41/11
f 39/42/12 41/43/12 40/44/12
f 25/45/13 26/46/13 27/47/13 28/48/13
f 29/49/14 30/50/14 31/51/14 27/52/14
f 32/53/15 33/54/15 34/55/15 31/56/15
f 35/57/16 36/58/16 28/59/16 34/60/16
f 37/61/17 25/62/17 36/63/17 38/64/17
f 33/65/18 39/66/18 40/67/18 35/68/18
f 41/69/19 42/70/19 38/71/19 40/72/19
f 43/73/20 37/74/20 42/75/20 44/76/20
f 39/77/21 45/78/21 46/79/21 41/80/21
f 47/81/22 48/82/22 44/83/22 46/84/22
f 26/85/23 43/86/23 48/87/23 29/88/23
f 45/89/24 32/90/24 30/91/24 47/92/24
f 10/93/25 5/94/25 56/95/25 57/96/25
f 7/97/3 1/98/3 26/99/3 25/100/3
f 3/101/1 8/102/1 28/103/1 27/104/1
f 2/105/4 4/106/4 30/107/4 29/108/4
f 6/109/1 3/101/1 27/104/1 31/110/1
f 5/111/26 10/112/26 33/113/26 32/114/26
f 12/115/1 6/109/1 31/110/1 34/116/1
f 11/117/2 9/118/2 36/119/2 35/120/2
f 8/102/1 12/115/1 34/116/1 28/103/1
f 19/121/3 7/97/3 25/100/3 37/122/3
f 9/118/2 20/123/2 38/124/2 36/119/2
f 10/112/26 22/125/26 39/126/26 33/113/26
f 24/127/2 11/117/2 35/120/2 40/128/2
f 23/129/25 21/130/25 42/131/25 41/132/25
f 20/123/2 24/127/2 40/128/2 38/124/2
f 13/133/3 19/121/3 37/122/3 43/134/3
f 21/130/25 14/135/25 44/136/25 42/131/25
f 22/125/26 16/137/26 45/138/26 39/126/26
f 18/139/25 23/129/25 41/132/25 46/140/25
f 17/141/4 15/142/4 48/143/4 47/144/4
f 14/135/25 18/139/25 46/140/25 44/136/25
f 1/98/3 13/133/3 43/134/3 26/99/3
f 15/142/4 2/105/4 29/108/4 48/143/4
f 16/137/26 5/111/26 32/114/26 45/138/26
f 4/106/4 17/141/4 47/144/4 30/107/4
f 72/145/4 71/146/4 54/147/4 53/148/4
f 66/149/25 65/150/25 70/151/25 68/152/25
f 63/153/26 57/154/26 56/155/26 69/156/26
f 51/157/1 55/158/1 58/159/1 52/160/1
f 60/161/2 59/162/2 64/163/2 62/164/2
f 49/165/3 61/166/3 67/167/3 50/168/3
f 9/169/25 11/170/25 59/171/25 60/172/25
f 2/173/26 15/174/26 72/175/26 53/176/26
f 19/177/1 13/178/1 67/179/1 61/180/1
f 12/181/4 8/182/4 52/183/4 58/184/4
f 5/185/2 16/186/2 69/187/2 56/188/2
f 1/189/25 7/190/25 49/191/25 50/192/25
f 14/193/26 21/194/26 66/195/26 68/196/26
f 7/197/4 19/198/4 61/199/4 49/200/4
f 17/201/3 4/202/3 54/203/3 71/204/3
f 8/205/26 3/206/26 51/207/26 52/208/26
f 16/209/1 22/210/1 63/211/1 69/212/1
f 20/213/26 9/214/26 60/215/26 62/216/26
f 4/217/25 2/218/25 53/219/25 54/220/25
f 23/221/3 18/222/3 70/223/3 65/224/3
f 22/225/4 10/226/4 57/227/4 63/228/4
f 3/229/2 6/230/2 55/231/2 51/232/2
f 15/233/1 17/234/1 71/235/1 72/236/1
f 11/237/3 24/238/3 64/239/3 59/240/3
